<svg width="20" height="20" viewBox="0 0 20 20" fill="none" xmlns="http://www.w3.org/2000/svg">
<path fill-rule="evenodd" clip-rule="evenodd" d="M10 0C4.47715 0 0 4.47715 0 10C0 15.5228 4.47715 20 10 20C15.5228 20 20 15.5228 20 10C20 4.47715 15.5228 0 10 0ZM7.70272 6.71594C7.43026 6.44348 6.98852 6.44348 6.71606 6.71594C6.4436 6.9884 6.4436 7.43014 6.71606 7.7026L9.01343 9.99997L6.71606 12.2973C6.4436 12.5698 6.4436 13.0115 6.71606 13.284C6.98852 13.5565 7.43026 13.5565 7.70272 13.284L10.0001 10.9866L12.2975 13.284C12.5699 13.5565 13.0117 13.5565 13.2841 13.284C13.5566 13.0115 13.5566 12.5698 13.2841 12.2973L10.9868 9.99997L13.2841 7.7026C13.5566 7.43014 13.5566 6.9884 13.2841 6.71594C13.0117 6.44348 12.5699 6.44348 12.2975 6.71594L10.0001 9.01331L7.70272 6.71594Z" fill="#D83933"/>
</svg>
