<svg width="20" height="18" viewBox="0 0 20 18" fill="none" xmlns="http://www.w3.org/2000/svg">
<path fill-rule="evenodd" clip-rule="evenodd" d="M10 0C9.56892 0 9.14664 0.114622 8.77416 0.330806C8.40189 0.54687 8.09303 0.856336 7.87501 1.22686L0.331828 14.2083L0.326499 14.2178C0.113142 14.5987 0.00119495 15.0286 9.51493e-06 15.4651C-0.00117598 15.9015 0.108433 16.3321 0.319685 16.7141C0.531016 17.0963 0.837565 17.4181 1.21143 17.6449C1.58551 17.8718 2.01288 17.995 2.45082 18L17.5412 18L17.5492 17.9999C17.9871 17.9949 18.4145 17.8718 18.7886 17.6449C19.1624 17.4181 19.469 17.0963 19.6803 16.7141C19.8916 16.3321 20.0012 15.9015 20 15.4651C19.9988 15.0286 19.8869 14.5986 19.6736 14.2178L12.1269 1.23013L12.125 1.22687C11.907 0.856341 11.5981 0.54687 11.2258 0.330806C10.8534 0.114622 10.4311 0 10 0ZM10.6976 6.23076C10.6976 5.84841 10.3852 5.53845 9.99992 5.53845C9.6146 5.53845 9.30225 5.84841 9.30225 6.23076V9.92306C9.30225 10.3054 9.6146 10.6154 9.99992 10.6154C10.3852 10.6154 10.6976 10.3054 10.6976 9.92306V6.23076ZM9.99992 12.923C9.6146 12.923 9.30225 13.233 9.30225 13.6154C9.30225 13.9977 9.6146 14.3077 9.99992 14.3077H10.0092C10.3945 14.3077 10.7069 13.9977 10.7069 13.6154C10.7069 13.233 10.3945 12.923 10.0092 12.923H9.99992Z" fill="#DD7533"/>
</svg>
