<svg width="20" height="20" viewBox="0 0 20 20" fill="none" xmlns="http://www.w3.org/2000/svg">
<path fill-rule="evenodd" clip-rule="evenodd" d="M10 20C15.5228 20 20 15.5228 20 10C20 4.47715 15.5228 0 10 0C4.47715 0 0 4.47715 0 10C0 15.5228 4.47715 20 10 20ZM10.0001 6.97672C10.3854 6.97672 10.6978 6.66436 10.6978 6.27904C10.6978 5.89373 10.3854 5.58137 10.0001 5.58137H9.99078C9.60546 5.58137 9.2931 5.89373 9.2931 6.27904C9.2931 6.66436 9.60546 6.97672 9.99078 6.97672H10.0001ZM9.3024 13.7209C9.3024 14.1062 9.61476 14.4186 10.0001 14.4186C10.3854 14.4186 10.6978 14.1062 10.6978 13.7209V9.99998C10.6978 9.61466 10.3854 9.3023 10.0001 9.3023C9.61477 9.3023 9.3024 9.61466 9.3024 9.99998V13.7209Z" fill="#4F97D1"/>
</svg>
