<svg width="20" height="20" viewBox="0 0 20 20" fill="none" xmlns="http://www.w3.org/2000/svg">
<path fill-rule="evenodd" clip-rule="evenodd" d="M10 0C4.47715 0 0 4.47715 0 10C0 15.5228 4.47715 20 10 20C15.5228 20 20 15.5228 20 10C20 4.47715 15.5228 0 10 0ZM15.1447 7.7026C15.4172 7.43014 15.4172 6.9884 15.1447 6.71594C14.8722 6.44348 14.4305 6.44348 14.158 6.71594L8.25602 12.618L5.84237 10.2043C5.56991 9.93185 5.12817 9.93185 4.85571 10.2043C4.58325 10.4768 4.58325 10.9185 4.85571 11.191L7.76269 14.0979C8.03515 14.3704 8.47689 14.3704 8.74935 14.0979L15.1447 7.7026Z" fill="#24A148"/>
</svg>
