<svg width="10" height="10" viewBox="0 0 10 10" fill="none" xmlns="http://www.w3.org/2000/svg">
<path fill-rule="evenodd" clip-rule="evenodd" d="M0.483902 0.637039C0.686396 0.434545 1.0147 0.434545 1.2172 0.637039L4.9987 4.41854L8.7802 0.637039C8.98269 0.434545 9.311 0.434545 9.51349 0.637039C9.71599 0.839533 9.71599 1.16784 9.51349 1.37033L5.73199 5.15184L9.51349 8.93334C9.71599 9.13583 9.71599 9.46414 9.51349 9.66663C9.311 9.86913 8.98269 9.86913 8.7802 9.66663L4.9987 5.88513L1.2172 9.66663C1.0147 9.86913 0.686396 9.86913 0.483902 9.66663C0.281408 9.46414 0.281408 9.13583 0.483902 8.93334L4.2654 5.15184L0.483902 1.37033C0.281408 1.16784 0.281408 0.839533 0.483902 0.637039Z" fill="#4F97D1"/>
</svg>
