<svg width="12" height="12" viewBox="0 0 12 12" fill="none" xmlns="http://www.w3.org/2000/svg">
<path fill-rule="evenodd" clip-rule="evenodd" d="M0.356464 0.356525C0.609582 0.103408 1.01997 0.103408 1.27308 0.356525L5.99996 5.0834L10.7268 0.356525C10.98 0.103408 11.3903 0.103408 11.6435 0.356525C11.8966 0.609643 11.8966 1.02003 11.6435 1.27315L6.91658 6.00002L11.6435 10.7269C11.8966 10.98 11.8966 11.3904 11.6435 11.6435C11.3903 11.8966 10.98 11.8966 10.7268 11.6435L5.99996 6.91664L1.27308 11.6435C1.01997 11.8966 0.609582 11.8966 0.356464 11.6435C0.103347 11.3904 0.103347 10.98 0.356464 10.7269L5.08334 6.00002L0.356464 1.27315C0.103347 1.02003 0.103347 0.609643 0.356464 0.356525Z" fill="#3D4551"/>
</svg>
