<svg width="24" height="24" viewBox="0 0 24 24" fill="none" xmlns="http://www.w3.org/2000/svg">
<path fill-rule="evenodd" clip-rule="evenodd" d="M12 2C6.47715 2 2 6.47715 2 12C2 17.5228 6.47715 22 12 22C17.5228 22 22 17.5228 22 12C22 6.47715 17.5228 2 12 2ZM9.70272 8.71594C9.43026 8.44348 8.98852 8.44348 8.71606 8.71594C8.4436 8.9884 8.4436 9.43014 8.71606 9.7026L11.0134 12L8.71606 14.2973C8.4436 14.5698 8.4436 15.0115 8.71606 15.284C8.98852 15.5565 9.43026 15.5565 9.70272 15.284L12.0001 12.9866L14.2975 15.284C14.5699 15.5565 15.0117 15.5565 15.2841 15.284C15.5566 15.0115 15.5566 14.5698 15.2841 14.2973L12.9868 12L15.2841 9.7026C15.5566 9.43014 15.5566 8.9884 15.2841 8.71594C15.0117 8.44348 14.5699 8.44348 14.2975 8.71594L12.0001 11.0133L9.70272 8.71594Z" fill="#D83933"/>
</svg>
