<svg width="24" height="24" viewBox="0 0 24 24" fill="none" xmlns="http://www.w3.org/2000/svg">
<path fill-rule="evenodd" clip-rule="evenodd" d="M12 22C17.5228 22 22 17.5228 22 12C22 6.47715 17.5228 2 12 2C6.47715 2 2 6.47715 2 12C2 17.5228 6.47715 22 12 22ZM12.0001 8.97672C12.3854 8.97672 12.6978 8.66436 12.6978 8.27904C12.6978 7.89373 12.3854 7.58137 12.0001 7.58137H11.9908C11.6055 7.58137 11.2931 7.89373 11.2931 8.27904C11.2931 8.66436 11.6055 8.97672 11.9908 8.97672H12.0001ZM11.3024 15.7209C11.3024 16.1062 11.6148 16.4186 12.0001 16.4186C12.3854 16.4186 12.6978 16.1062 12.6978 15.7209V12C12.6978 11.6147 12.3854 11.3023 12.0001 11.3023C11.6148 11.3023 11.3024 11.6147 11.3024 12V15.7209Z" fill="#4F97D1"/>
</svg>
