<svg width="24" height="24" viewBox="0 0 24 24" fill="none" xmlns="http://www.w3.org/2000/svg">
<path fill-rule="evenodd" clip-rule="evenodd" d="M12 2C6.47715 2 2 6.47715 2 12C2 17.5228 6.47715 22 12 22C17.5228 22 22 17.5228 22 12C22 6.47715 17.5228 2 12 2ZM17.1447 9.7026C17.4172 9.43014 17.4172 8.9884 17.1447 8.71594C16.8722 8.44348 16.4305 8.44348 16.158 8.71594L10.256 14.618L7.84237 12.2043C7.56991 11.9319 7.12817 11.9319 6.85571 12.2043C6.58325 12.4768 6.58325 12.9185 6.85571 13.191L9.76269 16.0979C10.0351 16.3704 10.4769 16.3704 10.7493 16.0979L17.1447 9.7026Z" fill="#24A148"/>
</svg>
