<svg width="24" height="24" viewBox="0 0 24 24" fill="none" xmlns="http://www.w3.org/2000/svg">
<path fill-rule="evenodd" clip-rule="evenodd" d="M12 3C11.5689 3 11.1466 3.11462 10.7742 3.33081C10.4019 3.54687 10.093 3.85634 9.87501 4.22686L2.33183 17.2083L2.3265 17.2178C2.11314 17.5987 2.00119 18.0286 2.00001 18.4651C1.99882 18.9015 2.10843 19.3321 2.31968 19.7141C2.53102 20.0963 2.83756 20.4181 3.21143 20.6449C3.58551 20.8718 4.01288 20.995 4.45082 21L19.5412 21L19.5492 20.9999C19.9871 20.9949 20.4145 20.8718 20.7886 20.6449C21.1624 20.4181 21.469 20.0963 21.6803 19.7141C21.8916 19.3321 22.0012 18.9015 22 18.4651C21.9988 18.0286 21.8869 17.5986 21.6736 17.2178L14.1269 4.23013L14.125 4.22687C13.907 3.85634 13.5981 3.54687 13.2258 3.33081C12.8534 3.11462 12.4311 3 12 3ZM12.6976 9.23076C12.6976 8.84841 12.3852 8.53845 11.9999 8.53845C11.6146 8.53845 11.3022 8.84841 11.3022 9.23076V12.9231C11.3022 13.3054 11.6146 13.6154 11.9999 13.6154C12.3852 13.6154 12.6976 13.3054 12.6976 12.9231V9.23076ZM11.9999 15.923C11.6146 15.923 11.3022 16.233 11.3022 16.6154C11.3022 16.9977 11.6146 17.3077 11.9999 17.3077H12.0092C12.3945 17.3077 12.7069 16.9977 12.7069 16.6154C12.7069 16.233 12.3945 15.923 12.0092 15.923H11.9999Z" fill="#DD7533"/>
</svg>
